M48
; DRILL file {KiCad 9.0.6} date 2026-03-02T22:48:27+0700
; FORMAT={-:-/ absolute / metric / decimal}
; #@! TF.CreationDate,2026-03-02T22:48:27+07:00
; #@! TF.GenerationSoftware,Kicad,Pcbnew,9.0.6
; #@! TF.FileFunction,Plated,1,2,PTH
FMAT,2
METRIC
; #@! TA.AperFunction,Plated,PTH,ViaDrill
T1C0.300
; #@! TA.AperFunction,Plated,PTH,ComponentDrill
T2C0.500
; #@! TA.AperFunction,Plated,PTH,ComponentDrill
T3C0.600
; #@! TA.AperFunction,Plated,PTH,ComponentDrill
T4C0.750
; #@! TA.AperFunction,Plated,PTH,ComponentDrill
T5C1.000
; #@! TA.AperFunction,Plated,PTH,ComponentDrill
T6C2.000
; #@! TA.AperFunction,Plated,PTH,ComponentDrill
T7C2.700
%
G90
G05
T1
X107.568Y-75.5
X109.568Y-83.5
X109.568Y-85.0
X109.568Y-88.0
X109.568Y-89.5
X114.068Y-89.0
X114.068Y-92.5
X114.818Y-78.0
X116.068Y-106.0
X117.068Y-89.0
X117.068Y-90.5
X120.068Y-94.5
X121.818Y-86.75
X122.066Y-94.517
X122.318Y-92.25
X123.568Y-108.0
X126.068Y-88.5
X127.068Y-105.5
X127.568Y-93.35
X128.818Y-83.5
X129.068Y-100.5
X130.068Y-101.25
X130.735Y-100.5
X131.068Y-86.0
X131.068Y-87.875
X131.068Y-89.75
X131.068Y-91.625
X131.068Y-93.5
X131.568Y-102.0
X132.401Y-100.5
X132.568Y-101.25
X133.068Y-86.0
X133.068Y-87.875
X133.068Y-89.75
X133.068Y-91.625
X133.068Y-93.5
X133.568Y-79.5
X134.068Y-100.5
X134.318Y-82.5
X134.798Y-102.02
X135.068Y-86.0
X135.068Y-87.875
X135.068Y-89.75
X135.068Y-91.625
X135.068Y-93.5
X135.318Y-80.0
X136.068Y-78.5
X136.568Y-101.0
X137.068Y-81.5
X137.068Y-86.0
X137.068Y-87.875
X137.068Y-89.75
X137.068Y-91.625
X137.068Y-93.5
X138.818Y-86.0
X138.818Y-87.875
X138.818Y-89.75
X138.818Y-91.625
X138.818Y-93.5
X141.068Y-106.0
X143.068Y-71.5
X143.068Y-105.5
X143.569Y-88.75
X143.818Y-96.5
X144.318Y-98.5
X144.568Y-97.5
X149.068Y-107.5
X154.068Y-73.0
X168.568Y-84.5
T2
X96.043Y-70.0
X96.043Y-107.0
X96.636Y-68.568
X96.636Y-71.432
X96.636Y-105.568
X96.636Y-108.432
X98.068Y-67.975
X98.068Y-72.025
X98.068Y-104.975
X98.068Y-109.025
X99.5Y-68.568
X99.5Y-71.432
X99.5Y-105.568
X99.5Y-108.432
X100.093Y-70.0
X100.093Y-107.0
X166.975Y-70.0
X166.975Y-107.0
X167.568Y-68.568
X167.568Y-71.432
X167.568Y-105.568
X167.568Y-108.432
X169.0Y-67.975
X169.0Y-72.025
X169.0Y-104.975
X169.0Y-109.025
X170.432Y-68.568
X170.432Y-71.432
X170.432Y-105.568
X170.432Y-108.432
X171.025Y-70.0
X171.025Y-107.0
T4
X106.568Y-106.5
X108.568Y-106.5
X110.23Y-72.36
X111.5Y-72.36
X112.77Y-72.36
T5
X118.9Y-73.5
X126.5Y-73.5
X146.488Y-71.385
X149.028Y-71.385
X149.258Y-106.0
X151.568Y-71.385
X151.798Y-106.0
X154.108Y-71.385
X154.338Y-106.0
X156.648Y-71.385
X156.878Y-106.0
X170.568Y-84.69
X170.568Y-87.23
X170.568Y-89.77
X170.568Y-92.31
T6
X148.068Y-77.5
X148.068Y-99.5
X170.068Y-77.5
X170.068Y-99.5
T7
X98.068Y-70.0
X98.068Y-107.0
X169.0Y-70.0
X169.0Y-107.0
T3
G00X97.643Y-81.93
M15
G01X96.843Y-81.93
M16
G05
G00X97.643Y-90.57
M15
G01X96.843Y-90.57
M16
G05
G00X101.973Y-81.93
M15
G01X100.873Y-81.93
M16
G05
G00X101.973Y-90.57
M15
G01X100.873Y-90.57
M16
G05
M30
