%TF.GenerationSoftware,KiCad,Pcbnew,9.0.6*%
%TF.CreationDate,2026-03-02T22:48:21+07:00*%
%TF.ProjectId,Smart_Spotter,536d6172-745f-4537-906f-747465722e6b,rev?*%
%TF.SameCoordinates,Original*%
%TF.FileFunction,Copper,L2,Bot*%
%TF.FilePolarity,Positive*%
%FSLAX46Y46*%
G04 Gerber Fmt 4.6, Leading zero omitted, Abs format (unit mm)*
G04 Created by KiCad (PCBNEW 9.0.6) date 2026-03-02 22:48:21*
%MOMM*%
%LPD*%
G01*
G04 APERTURE LIST*
G04 Aperture macros list*
%AMRoundRect*
0 Rectangle with rounded corners*
0 $1 Rounding radius*
0 $2 $3 $4 $5 $6 $7 $8 $9 X,Y pos of 4 corners*
0 Add a 4 corners polygon primitive as box body*
4,1,4,$2,$3,$4,$5,$6,$7,$8,$9,$2,$3,0*
0 Add four circle primitives for the rounded corners*
1,1,$1+$1,$2,$3*
1,1,$1+$1,$4,$5*
1,1,$1+$1,$6,$7*
1,1,$1+$1,$8,$9*
0 Add four rect primitives between the rounded corners*
20,1,$1+$1,$2,$3,$4,$5,0*
20,1,$1+$1,$4,$5,$6,$7,0*
20,1,$1+$1,$6,$7,$8,$9,0*
20,1,$1+$1,$8,$9,$2,$3,0*%
G04 Aperture macros list end*
%TA.AperFunction,ComponentPad*%
%ADD10RoundRect,0.250000X0.350000X0.625000X-0.350000X0.625000X-0.350000X-0.625000X0.350000X-0.625000X0*%
%TD*%
%TA.AperFunction,ComponentPad*%
%ADD11O,1.200000X1.750000*%
%TD*%
%TA.AperFunction,ComponentPad*%
%ADD12C,0.800000*%
%TD*%
%TA.AperFunction,ComponentPad*%
%ADD13C,5.400000*%
%TD*%
%TA.AperFunction,ComponentPad*%
%ADD14R,1.700000X1.700000*%
%TD*%
%TA.AperFunction,ComponentPad*%
%ADD15C,1.700000*%
%TD*%
%TA.AperFunction,ComponentPad*%
%ADD16R,1.508000X1.508000*%
%TD*%
%TA.AperFunction,ComponentPad*%
%ADD17C,1.508000*%
%TD*%
%TA.AperFunction,ComponentPad*%
%ADD18C,3.000000*%
%TD*%
%TA.AperFunction,HeatsinkPad*%
%ADD19O,2.100000X1.000000*%
%TD*%
%TA.AperFunction,HeatsinkPad*%
%ADD20O,1.800000X1.000000*%
%TD*%
%TA.AperFunction,ComponentPad*%
%ADD21R,2.000000X2.000000*%
%TD*%
%TA.AperFunction,ComponentPad*%
%ADD22C,2.000000*%
%TD*%
%TA.AperFunction,ComponentPad*%
%ADD23R,1.050000X1.500000*%
%TD*%
%TA.AperFunction,ComponentPad*%
%ADD24O,1.050000X1.500000*%
%TD*%
%TA.AperFunction,ViaPad*%
%ADD25C,0.600000*%
%TD*%
%TA.AperFunction,Conductor*%
%ADD26C,0.500000*%
%TD*%
%TA.AperFunction,Conductor*%
%ADD27C,0.200000*%
%TD*%
G04 APERTURE END LIST*
D10*
%TO.P,J1,1,Pin_1*%
%TO.N,Net-(D3-A)*%
X108568109Y-106500000D03*
D11*
%TO.P,J1,2,Pin_2*%
%TO.N,GND*%
X106568109Y-106500000D03*
%TD*%
D12*
%TO.P,H3,1,1*%
%TO.N,GND*%
X166975000Y-107000000D03*
X167568109Y-105568109D03*
X167568109Y-108431891D03*
X169000000Y-104975000D03*
D13*
X169000000Y-107000000D03*
D12*
X169000000Y-109025000D03*
X170431891Y-105568109D03*
X170431891Y-108431891D03*
X171025000Y-107000000D03*
%TD*%
%TO.P,H2,1,1*%
%TO.N,GND*%
X96043109Y-107000000D03*
X96636218Y-105568109D03*
X96636218Y-108431891D03*
X98068109Y-104975000D03*
D13*
X98068109Y-107000000D03*
D12*
X98068109Y-109025000D03*
X99500000Y-105568109D03*
X99500000Y-108431891D03*
X100093109Y-107000000D03*
%TD*%
D14*
%TO.P,J2,1,Pin_1*%
%TO.N,/SWCLK*%
X146488109Y-71385000D03*
D15*
%TO.P,J2,2,Pin_2*%
%TO.N,/SWDIO*%
X149028109Y-71385000D03*
%TO.P,J2,3,Pin_3*%
%TO.N,/NRST*%
X151568109Y-71385000D03*
%TO.P,J2,4,Pin_4*%
%TO.N,GND*%
X154108109Y-71385000D03*
%TO.P,J2,5,Pin_5*%
%TO.N,+3V3*%
X156648109Y-71385000D03*
%TD*%
D16*
%TO.P,DS1,1,GND*%
%TO.N,GND*%
X170568109Y-84690000D03*
D17*
%TO.P,DS1,2,VCC*%
%TO.N,+3V3*%
X170568109Y-87230000D03*
%TO.P,DS1,3,SCL*%
%TO.N,/SCL_OLED*%
X170568109Y-89770000D03*
%TO.P,DS1,4,SDA*%
%TO.N,/SDA_OLED*%
X170568109Y-92310000D03*
D18*
%TO.P,DS1,S1*%
%TO.N,N/C*%
X170068109Y-77500000D03*
%TO.P,DS1,S2*%
X170068109Y-99500000D03*
%TO.P,DS1,S3*%
X148068109Y-99500000D03*
%TO.P,DS1,S4*%
X148068109Y-77500000D03*
%TD*%
D14*
%TO.P,J3,1,Pin_1*%
%TO.N,+3V3*%
X156878109Y-106000000D03*
D15*
%TO.P,J3,2,Pin_2*%
%TO.N,/UART_TX*%
X154338109Y-106000000D03*
%TO.P,J3,3,Pin_3*%
%TO.N,/UART_RX*%
X151798109Y-106000000D03*
%TO.P,J3,4,Pin_4*%
%TO.N,GND*%
X149258109Y-106000000D03*
%TD*%
D19*
%TO.P,J4,S1,SHIELD*%
%TO.N,GND*%
X101423109Y-81930000D03*
D20*
X97243109Y-81930000D03*
D19*
X101423109Y-90570000D03*
D20*
X97243109Y-90570000D03*
%TD*%
D12*
%TO.P,H1,1,1*%
%TO.N,GND*%
X96043109Y-70000000D03*
X96636218Y-68568109D03*
X96636218Y-71431891D03*
X98068109Y-67975000D03*
D13*
X98068109Y-70000000D03*
D12*
X98068109Y-72025000D03*
X99500000Y-68568109D03*
X99500000Y-71431891D03*
X100093109Y-70000000D03*
%TD*%
%TO.P,H4,1,1*%
%TO.N,GND*%
X166975000Y-70000000D03*
X167568109Y-68568109D03*
X167568109Y-71431891D03*
X169000000Y-67975000D03*
D13*
X169000000Y-70000000D03*
D12*
X169000000Y-72025000D03*
X170431891Y-68568109D03*
X170431891Y-71431891D03*
X171025000Y-70000000D03*
%TD*%
D21*
%TO.P,BZ1,1,+*%
%TO.N,+3V3*%
X118900000Y-73500000D03*
D22*
%TO.P,BZ1,2,-*%
%TO.N,Net-(BZ1--)*%
X126500000Y-73500000D03*
%TD*%
D23*
%TO.P,Q1,1,E*%
%TO.N,GND*%
X110230000Y-72360000D03*
D24*
%TO.P,Q1,2,B*%
%TO.N,Net-(Q1-B)*%
X111500000Y-72360000D03*
%TO.P,Q1,3,C*%
%TO.N,Net-(BZ1--)*%
X112770000Y-72360000D03*
%TD*%
D25*
%TO.N,+3V3*%
X135318109Y-80000000D03*
X128818109Y-83500000D03*
%TO.N,GND*%
X132401442Y-100500000D03*
X149068109Y-107500000D03*
X131068109Y-93500000D03*
X138818109Y-93500000D03*
X114068109Y-89000000D03*
X133068109Y-93500000D03*
X131068109Y-91625000D03*
X127068109Y-105500000D03*
X143068109Y-105500000D03*
X114068109Y-92500000D03*
X137068109Y-89750000D03*
X135068109Y-87875000D03*
X137068109Y-91625000D03*
X137068109Y-93500000D03*
X122318109Y-92250000D03*
X154068109Y-73000000D03*
X117068109Y-90500000D03*
X121818109Y-86750000D03*
X138818109Y-87875000D03*
X138818109Y-86000000D03*
X138818109Y-89750000D03*
X107568109Y-75500000D03*
X120068109Y-94500000D03*
X135068109Y-93500000D03*
X135068109Y-91625000D03*
X136068109Y-78500000D03*
X136568109Y-101000000D03*
X135068109Y-86000000D03*
X137068109Y-86000000D03*
X135068109Y-89750000D03*
X116068109Y-106000000D03*
X131068109Y-86000000D03*
X130068109Y-101250000D03*
X133068109Y-89750000D03*
X122065511Y-94517476D03*
X131068109Y-87875000D03*
X134798109Y-102020000D03*
X130734776Y-100500000D03*
X134068109Y-100500000D03*
X109568109Y-88000000D03*
X133568109Y-79500000D03*
X114818109Y-78000000D03*
X131568109Y-102000000D03*
X141068109Y-106000000D03*
X138818109Y-91625000D03*
X109568109Y-83500000D03*
X123568109Y-108000000D03*
X117068109Y-89000000D03*
X109568109Y-85000000D03*
X133068109Y-87875000D03*
X129068109Y-100500000D03*
X133068109Y-91625000D03*
X168568109Y-84500000D03*
X131068109Y-89750000D03*
X132568109Y-101250000D03*
X109568109Y-89500000D03*
X137068109Y-87875000D03*
X133068109Y-86000000D03*
%TO.N,/NRST*%
X144568109Y-97500000D03*
%TO.N,/UART_TX*%
X137068109Y-81500000D03*
%TO.N,/UART_RX*%
X134318109Y-82500000D03*
%TO.N,/Buzzer*%
X143068109Y-71500000D03*
X143569109Y-88750000D03*
%TO.N,/SDA_IMU*%
X126068109Y-88500000D03*
X127568109Y-93350000D03*
%TO.N,/INT_IMU*%
X144318109Y-98500000D03*
X143818109Y-96500000D03*
%TD*%
D26*
%TO.N,+3V3*%
X131818109Y-83500000D02*
X128818109Y-83500000D01*
X135318109Y-80000000D02*
X131818109Y-83500000D01*
D27*
%TO.N,/NRST*%
X144219109Y-96948944D02*
X144219109Y-97151000D01*
X143969109Y-88300057D02*
X144170109Y-88501057D01*
X143370109Y-89698000D02*
X143370109Y-95052000D01*
X143469109Y-78099000D02*
X143469109Y-83833900D01*
X144170109Y-88501057D02*
X144170109Y-88998943D01*
X147568109Y-74000000D02*
X143469109Y-78099000D01*
X144219109Y-97151000D02*
X144568109Y-97500000D01*
X143469109Y-83833900D02*
X143969109Y-84333900D01*
X144067052Y-95899000D02*
X144419109Y-96251057D01*
X144067052Y-95748943D02*
X144067052Y-95899000D01*
X143818052Y-89351000D02*
X143717109Y-89351000D01*
X143370109Y-95052000D02*
X144067052Y-95748943D01*
X144419109Y-96748943D02*
X144219109Y-96948944D01*
X143969109Y-84333900D02*
X143969109Y-88300057D01*
X143717109Y-89351000D02*
X143370109Y-89698000D01*
X151568109Y-71385000D02*
X148953109Y-74000000D01*
X144170109Y-88998943D02*
X143818052Y-89351000D01*
X144419109Y-96251057D02*
X144419109Y-96748943D01*
X148953109Y-74000000D02*
X147568109Y-74000000D01*
%TO.N,/UART_TX*%
X137068109Y-81500000D02*
X137167109Y-81599000D01*
X145568109Y-103000000D02*
X153568109Y-103000000D01*
X142969109Y-100401000D02*
X145568109Y-103000000D01*
X139734209Y-81599000D02*
X142969109Y-84833900D01*
X153568109Y-103000000D02*
X154338109Y-103770000D01*
X137167109Y-81599000D02*
X139734209Y-81599000D01*
X154338109Y-103770000D02*
X154338109Y-106000000D01*
X142969109Y-84833900D02*
X142969109Y-100401000D01*
%TO.N,/UART_RX*%
X142568109Y-101500000D02*
X145068109Y-104000000D01*
X151798109Y-106270000D02*
X151568109Y-106500000D01*
X134318109Y-82500000D02*
X140068109Y-82500000D01*
X151798109Y-104230000D02*
X151798109Y-106000000D01*
X151568109Y-104000000D02*
X151798109Y-104230000D01*
X145068109Y-104000000D02*
X151568109Y-104000000D01*
X142568109Y-85000000D02*
X142568109Y-101500000D01*
X151798109Y-106000000D02*
X151798109Y-106270000D01*
X140068109Y-82500000D02*
X142568109Y-85000000D01*
%TO.N,/Buzzer*%
X143568109Y-84500000D02*
X143068109Y-84000000D01*
X143569109Y-88750000D02*
X143568109Y-88749000D01*
X143568109Y-88749000D02*
X143568109Y-84500000D01*
X143068109Y-84000000D02*
X143068109Y-71500000D01*
%TO.N,/SDA_IMU*%
X130068109Y-94000000D02*
X128068109Y-94000000D01*
X128068109Y-94000000D02*
X127568109Y-93500000D01*
X129568109Y-92000000D02*
X130068109Y-92000000D01*
X127568109Y-93500000D02*
X127568109Y-93350000D01*
X130318109Y-92250000D02*
X130318109Y-93750000D01*
X126068109Y-88500000D02*
X129568109Y-92000000D01*
X130068109Y-92000000D02*
X130318109Y-92250000D01*
X130318109Y-93750000D02*
X130068109Y-94000000D01*
%TO.N,/INT_IMU*%
X144318109Y-98500000D02*
X143818109Y-98000000D01*
X143818109Y-98000000D02*
X143818109Y-96500000D01*
%TD*%
%TA.AperFunction,Conductor*%
%TO.N,GND*%
G36*
X169003032Y-66504649D02*
G01*
X169101611Y-66509491D01*
X169336537Y-66521033D01*
X169348645Y-66522226D01*
X169675911Y-66570771D01*
X169687848Y-66573145D01*
X170008799Y-66653539D01*
X170020416Y-66657064D01*
X170331932Y-66768525D01*
X170343161Y-66773176D01*
X170642272Y-66914645D01*
X170652985Y-66920371D01*
X170936766Y-67090463D01*
X170946884Y-67097223D01*
X171212633Y-67294316D01*
X171222038Y-67302035D01*
X171467186Y-67524224D01*
X171475775Y-67532813D01*
X171658568Y-67734494D01*
X171697963Y-67777960D01*
X171705683Y-67787366D01*
X171902776Y-68053115D01*
X171909536Y-68063233D01*
X172079621Y-68347002D01*
X172085356Y-68357730D01*
X172096254Y-68380772D01*
X172226820Y-68656831D01*
X172231476Y-68668074D01*
X172252219Y-68726046D01*
X172342931Y-68979570D01*
X172346463Y-68991211D01*
X172426854Y-69312153D01*
X172429228Y-69324088D01*
X172477773Y-69651354D01*
X172478966Y-69663463D01*
X172495351Y-69996971D01*
X172495500Y-70002818D01*
X172495500Y-70044875D01*
X172495581Y-70045098D01*
X172495602Y-70056035D01*
X172495601Y-70056037D01*
X172495602Y-70056045D01*
X172563603Y-106996839D01*
X172563454Y-107003152D01*
X172547075Y-107336538D01*
X172545882Y-107348647D01*
X172497338Y-107675910D01*
X172494964Y-107687845D01*
X172414572Y-108008789D01*
X172411039Y-108020434D01*
X172299585Y-108331926D01*
X172294929Y-108343169D01*
X172153467Y-108642267D01*
X172147730Y-108652999D01*
X171977645Y-108936768D01*
X171970885Y-108946886D01*
X171773792Y-109212636D01*
X171766072Y-109222042D01*
X171543892Y-109467181D01*
X171535287Y-109475786D01*
X171290148Y-109697967D01*
X171280742Y-109705687D01*
X171014993Y-109902781D01*
X171004875Y-109909541D01*
X170721106Y-110079626D01*
X170710374Y-110085363D01*
X170411280Y-110226825D01*
X170400037Y-110231481D01*
X170088538Y-110342937D01*
X170076894Y-110346470D01*
X169755955Y-110426861D01*
X169744020Y-110429235D01*
X169416756Y-110477781D01*
X169404646Y-110478974D01*
X169071324Y-110495351D01*
X169065239Y-110495500D01*
X98071159Y-110495500D01*
X98065075Y-110495351D01*
X97731570Y-110478967D01*
X97719460Y-110477774D01*
X97392194Y-110429229D01*
X97380259Y-110426855D01*
X97059320Y-110346465D01*
X97047675Y-110342933D01*
X96736166Y-110231473D01*
X96724937Y-110226822D01*
X96425842Y-110085361D01*
X96415111Y-110079625D01*
X96131336Y-109909538D01*
X96121217Y-109902777D01*
X95855470Y-109705686D01*
X95846064Y-109697966D01*
X95600924Y-109475785D01*
X95592319Y-109467180D01*
X95370138Y-109222042D01*
X95362418Y-109212636D01*
X95165325Y-108946886D01*
X95158565Y-108936768D01*
X94988479Y-108652999D01*
X94982742Y-108642267D01*
X94841277Y-108343164D01*
X94836624Y-108331927D01*
X94815882Y-108273956D01*
X94725167Y-108020424D01*
X94721640Y-108008801D01*
X94641241Y-107687833D01*
X94638872Y-107675923D01*
X94590325Y-107348643D01*
X94589133Y-107336537D01*
X94587033Y-107293797D01*
X94572758Y-107003215D01*
X94572609Y-106997131D01*
X94572609Y-105824983D01*
X107467609Y-105824983D01*
X107467609Y-107175001D01*
X107467610Y-107175018D01*
X107478109Y-107277796D01*
X107478110Y-107277799D01*
X107502201Y-107350499D01*
X107533295Y-107444334D01*
X107625397Y-107593656D01*
X107749453Y-107717712D01*
X107898775Y-107809814D01*
X108065312Y-107864999D01*
X108168100Y-107875500D01*
X108968117Y-107875499D01*
X108968125Y-107875498D01*
X108968128Y-107875498D01*
X109024411Y-107869748D01*
X109070906Y-107864999D01*
X109237443Y-107809814D01*
X109386765Y-107717712D01*
X109510821Y-107593656D01*
X109602923Y-107444334D01*
X109658108Y-107277797D01*
X109668609Y-107175009D01*
X109668608Y-105824992D01*
X109658108Y-105722203D01*
X109602923Y-105555666D01*
X109510821Y-105406344D01*
X109386765Y-105282288D01*
X109237443Y-105190186D01*
X109070906Y-105135001D01*
X109070904Y-105135000D01*
X108968119Y-105124500D01*
X108168107Y-105124500D01*
X108168089Y-105124501D01*
X108065312Y-105135000D01*
X108065309Y-105135001D01*
X107898777Y-105190185D01*
X107898772Y-105190187D01*
X107749451Y-105282289D01*
X107625398Y-105406342D01*
X107533296Y-105555663D01*
X107533295Y-105555666D01*
X107478110Y-105722203D01*
X107478110Y-105722204D01*
X107478109Y-105722204D01*
X107467609Y-105824983D01*
X94572609Y-105824983D01*
X94572609Y-89080427D01*
X100470609Y-89080427D01*
X100470609Y-89199573D01*
X100478957Y-89230728D01*
X100501446Y-89314660D01*
X100512944Y-89334574D01*
X100561019Y-89417842D01*
X100645267Y-89502090D01*
X100748450Y-89561663D01*
X100863536Y-89592500D01*
X100863538Y-89592500D01*
X100982680Y-89592500D01*
X100982682Y-89592500D01*
X101097768Y-89561663D01*
X101200951Y-89502090D01*
X101285199Y-89417842D01*
X101344772Y-89314659D01*
X101375609Y-89199573D01*
X101375609Y-89080427D01*
X101344772Y-88965341D01*
X101285199Y-88862158D01*
X101200951Y-88777910D01*
X101124012Y-88733489D01*
X101097769Y-88718337D01*
X101018353Y-88697058D01*
X100982682Y-88687500D01*
X100863536Y-88687500D01*
X100748448Y-88718337D01*
X100645267Y-88777910D01*
X100645264Y-88777912D01*
X100561021Y-88862155D01*
X100561019Y-88862158D01*
X100501446Y-88965339D01*
X100489402Y-89010289D01*
X100470609Y-89080427D01*
X94572609Y-89080427D01*
X94572609Y-88421153D01*
X125267609Y-88421153D01*
X125267609Y-88578846D01*
X125298370Y-88733489D01*
X125298373Y-88733501D01*
X125358711Y-88879172D01*
X125358718Y-88879185D01*
X125446319Y-89010288D01*
X125446322Y-89010292D01*
X125557816Y-89121786D01*
X125557820Y-89121789D01*
X125688923Y-89209390D01*
X125688936Y-89209397D01*
X125740442Y-89230731D01*
X125834612Y-89269737D01*
X125899256Y-89282595D01*
X125989958Y-89300638D01*
X126051869Y-89333023D01*
X126053448Y-89334574D01*
X129083248Y-92364374D01*
X129083258Y-92364385D01*
X129087588Y-92368715D01*
X129087589Y-92368716D01*
X129199393Y-92480520D01*
X129199395Y-92480521D01*
X129199399Y-92480524D01*
X129318871Y-92549500D01*
X129336325Y-92559577D01*
X129448128Y-92589534D01*
X129489051Y-92600500D01*
X129489052Y-92600500D01*
X129598908Y-92600500D01*
X129604179Y-92600951D01*
X129632006Y-92611774D01*
X129660648Y-92620185D01*
X129664216Y-92624303D01*
X129669296Y-92626279D01*
X129686854Y-92650429D01*
X129706403Y-92672989D01*
X129707746Y-92679162D01*
X129710384Y-92682791D01*
X129711048Y-92694342D01*
X129717609Y-92724500D01*
X129717609Y-93275500D01*
X129697924Y-93342539D01*
X129645120Y-93388294D01*
X129593609Y-93399500D01*
X128492609Y-93399500D01*
X128425570Y-93379815D01*
X128379815Y-93327011D01*
X128368609Y-93275500D01*
X128368609Y-93271155D01*
X128368608Y-93271153D01*
X128337847Y-93116510D01*
X128337846Y-93116503D01*
X128337844Y-93116498D01*
X128277506Y-92970827D01*
X128277499Y-92970814D01*
X128189898Y-92839711D01*
X128189895Y-92839707D01*
X128078401Y-92728213D01*
X128078397Y-92728210D01*
X127947294Y-92640609D01*
X127947281Y-92640602D01*
X127801610Y-92580264D01*
X127801598Y-92580261D01*
X127646954Y-92549500D01*
X127646951Y-92549500D01*
X127489267Y-92549500D01*
X127489264Y-92549500D01*
X127334619Y-92580261D01*
X127334607Y-92580264D01*
X127188936Y-92640602D01*
X127188923Y-92640609D01*
X127057820Y-92728210D01*
X127057816Y-92728213D01*
X126946322Y-92839707D01*
X126946319Y-92839711D01*
X126858718Y-92970814D01*
X126858711Y-92970827D01*
X126798373Y-93116498D01*
X126798370Y-93116510D01*
X126767609Y-93271153D01*
X126767609Y-93428846D01*
X126798370Y-93583489D01*
X126798373Y-93583501D01*
X126858711Y-93729172D01*
X126858718Y-93729185D01*
X126946319Y-93860288D01*
X126946322Y-93860292D01*
X127057816Y-93971786D01*
X127057820Y-93971789D01*
X127188923Y-94059390D01*
X127188935Y-94059397D01*
X127281449Y-94097716D01*
X127318651Y-94113125D01*
X127358878Y-94140004D01*
X127699393Y-94480520D01*
X127699395Y-94480521D01*
X127699399Y-94480524D01*
X127836318Y-94559573D01*
X127836325Y-94559577D01*
X127989052Y-94600501D01*
X127989054Y-94600501D01*
X128154763Y-94600501D01*
X128154779Y-94600500D01*
X129981440Y-94600500D01*
X129981456Y-94600501D01*
X129989052Y-94600501D01*
X130147163Y-94600501D01*
X130147166Y-94600501D01*
X130299894Y-94559577D01*
X130350013Y-94530639D01*
X130436825Y-94480520D01*
X130548629Y-94368716D01*
X130548629Y-94368714D01*
X130558837Y-94358507D01*
X130558839Y-94358504D01*
X130676615Y-94240728D01*
X130676620Y-94240724D01*
X130686823Y-94230520D01*
X130686825Y-94230520D01*
X130798629Y-94118716D01*
X130877686Y-93981784D01*
X130918609Y-93829057D01*
X130918609Y-92170943D01*
X130877686Y-92018216D01*
X130876543Y-92016236D01*
X130798633Y-91881290D01*
X130798630Y-91881286D01*
X130798629Y-91881284D01*
X130686825Y-91769480D01*
X130686824Y-91769479D01*
X130682494Y-91765149D01*
X130682483Y-91765139D01*
X130555699Y-91638355D01*
X130555697Y-91638352D01*
X130436826Y-91519481D01*
X130436825Y-91519480D01*
X130350013Y-91469360D01*
X130350013Y-91469359D01*
X130350009Y-91469358D01*
X130299894Y-91440423D01*
X130147166Y-91399499D01*
X129989052Y-91399499D01*
X129981456Y-91399499D01*
X129981440Y-91399500D01*
X129868206Y-91399500D01*
X129801167Y-91379815D01*
X129780525Y-91363181D01*
X126902683Y-88485339D01*
X126869198Y-88424016D01*
X126868747Y-88421849D01*
X126850704Y-88331147D01*
X126837846Y-88266503D01*
X126809818Y-88198837D01*
X126777506Y-88120827D01*
X126777499Y-88120814D01*
X126689898Y-87989711D01*
X126689895Y-87989707D01*
X126578401Y-87878213D01*
X126578397Y-87878210D01*
X126447294Y-87790609D01*
X126447281Y-87790602D01*
X126301610Y-87730264D01*
X126301598Y-87730261D01*
X126146954Y-87699500D01*
X126146951Y-87699500D01*
X125989267Y-87699500D01*
X125989264Y-87699500D01*
X125834619Y-87730261D01*
X125834607Y-87730264D01*
X125688936Y-87790602D01*
X125688923Y-87790609D01*
X125557820Y-87878210D01*
X125557816Y-87878213D01*
X125446322Y-87989707D01*
X125446319Y-87989711D01*
X125358718Y-88120814D01*
X125358711Y-88120827D01*
X125298373Y-88266498D01*
X125298370Y-88266510D01*
X125267609Y-88421153D01*
X94572609Y-88421153D01*
X94572609Y-83300427D01*
X100470609Y-83300427D01*
X100470609Y-83419573D01*
X100471034Y-83421158D01*
X100501446Y-83534660D01*
X100516169Y-83560160D01*
X100561019Y-83637842D01*
X100645267Y-83722090D01*
X100748450Y-83781663D01*
X100863536Y-83812500D01*
X100863538Y-83812500D01*
X100982680Y-83812500D01*
X100982682Y-83812500D01*
X101097768Y-83781663D01*
X101200951Y-83722090D01*
X101285199Y-83637842D01*
X101344772Y-83534659D01*
X101375186Y-83421153D01*
X128017609Y-83421153D01*
X128017609Y-83578846D01*
X128048370Y-83733489D01*
X128048373Y-83733501D01*
X128108711Y-83879172D01*
X128108718Y-83879185D01*
X128196319Y-84010288D01*
X128196322Y-84010292D01*
X128307816Y-84121786D01*
X128307820Y-84121789D01*
X128438923Y-84209390D01*
X128438936Y-84209397D01*
X128560955Y-84259938D01*
X128584612Y-84269737D01*
X128739262Y-84300499D01*
X128739265Y-84300500D01*
X128739267Y-84300500D01*
X128896953Y-84300500D01*
X128896954Y-84300499D01*
X128973261Y-84285320D01*
X129051597Y-84269739D01*
X129051598Y-84269738D01*
X129051606Y-84269737D01*
X129075264Y-84259937D01*
X129122713Y-84250500D01*
X131892029Y-84250500D01*
X131989571Y-84231096D01*
X132037022Y-84221658D01*
X132173604Y-84165084D01*
X132238400Y-84121789D01*
X132238403Y-84121786D01*
X132238405Y-84121786D01*
X132267854Y-84102109D01*
X132296525Y-84082952D01*
X133458450Y-82921025D01*
X133519771Y-82887542D01*
X133589462Y-82892526D01*
X133645396Y-82934397D01*
X133649231Y-82939817D01*
X133696319Y-83010288D01*
X133696322Y-83010292D01*
X133807816Y-83121786D01*
X133807820Y-83121789D01*
X133938923Y-83209390D01*
X133938936Y-83209397D01*
X134038995Y-83250842D01*
X134084612Y-83269737D01*
X134238900Y-83300427D01*
X134239262Y-83300499D01*
X134239265Y-83300500D01*
X134239267Y-83300500D01*
X134396953Y-83300500D01*
X134396954Y-83300499D01*
X134551606Y-83269737D01*
X134697288Y-83209394D01*
X134735588Y-83183803D01*
X134828984Y-83121398D01*
X134895662Y-83100520D01*
X134897875Y-83100500D01*
X139768012Y-83100500D01*
X139835051Y-83120185D01*
X139855693Y-83136819D01*
X141931290Y-85212416D01*
X141964775Y-85273739D01*
X141967609Y-85300097D01*
X141967609Y-101413330D01*
X141967608Y-101413348D01*
X141967608Y-101579054D01*
X141967607Y-101579054D01*
X142008532Y-101731785D01*
X142037467Y-101781900D01*
X142037468Y-101781904D01*
X142037469Y-101781904D01*
X142087588Y-101868714D01*
X142087590Y-101868717D01*
X142206458Y-101987585D01*
X142206464Y-101987590D01*
X144583248Y-104364374D01*
X144583258Y-104364385D01*
X144587588Y-104368715D01*
X144587589Y-104368716D01*
X144699393Y-104480520D01*
X144786204Y-104530639D01*
X144786206Y-104530641D01*
X144824260Y-104552611D01*
X144836324Y-104559577D01*
X144989052Y-104600501D01*
X144989055Y-104600501D01*
X145154762Y-104600501D01*
X145154778Y-104600500D01*
X151053554Y-104600500D01*
X151120593Y-104620185D01*
X151166348Y-104672989D01*
X151176292Y-104742147D01*
X151147267Y-104805703D01*
X151109848Y-104834985D01*
X151090291Y-104844949D01*
X150918322Y-104969890D01*
X150767999Y-105120213D01*
X150643060Y-105292179D01*
X150546553Y-105481585D01*
X150480862Y-105683760D01*
X150447609Y-105893713D01*
X150447609Y-106106286D01*
X150480862Y-106316239D01*
X150546553Y-106518414D01*
X150643060Y-106707820D01*
X150767999Y-106879786D01*
X150918322Y-107030109D01*
X151090288Y-107155048D01*
X151090290Y-107155049D01*
X151090293Y-107155051D01*
X151279697Y-107251557D01*
X151481866Y-107317246D01*
X151691822Y-107350500D01*
X151691823Y-107350500D01*
X151904395Y-107350500D01*
X151904396Y-107350500D01*
X152114352Y-107317246D01*
X152316521Y-107251557D01*
X152505925Y-107155051D01*
X152592247Y-107092335D01*
X152677895Y-107030109D01*
X152677897Y-107030106D01*
X152677901Y-107030104D01*
X152828213Y-106879792D01*
X152828215Y-106879788D01*
X152828218Y-106879786D01*
X152953157Y-106707820D01*
X152953156Y-106707820D01*
X152953160Y-106707816D01*
X152957623Y-106699054D01*
X153005597Y-106648259D01*
X153073417Y-106631463D01*
X153139553Y-106653999D01*
X153178595Y-106699056D01*
X153183060Y-106707820D01*
X153307999Y-106879786D01*
X153458322Y-107030109D01*
X153630288Y-107155048D01*
X153630290Y-107155049D01*
X153630293Y-107155051D01*
X153819697Y-107251557D01*
X154021866Y-107317246D01*
X154231822Y-107350500D01*
X154231823Y-107350500D01*
X154444395Y-107350500D01*
X154444396Y-107350500D01*
X154654352Y-107317246D01*
X154856521Y-107251557D01*
X155045925Y-107155051D01*
X155217901Y-107030104D01*
X155331438Y-106916566D01*
X155392757Y-106883084D01*
X155462449Y-106888068D01*
X155518383Y-106929939D01*
X155535298Y-106960917D01*
X155584311Y-107092328D01*
X155584315Y-107092335D01*
X155670561Y-107207544D01*
X155670564Y-107207547D01*
X155785773Y-107293793D01*
X155785780Y-107293797D01*
X155920626Y-107344091D01*
X155920625Y-107344091D01*
X155927553Y-107344835D01*
X155980236Y-107350500D01*
X157775981Y-107350499D01*
X157835592Y-107344091D01*
X157970440Y-107293796D01*
X158085655Y-107207546D01*
X158171905Y-107092331D01*
X158222200Y-106957483D01*
X158228609Y-106897873D01*
X158228608Y-105102128D01*
X158222200Y-105042517D01*
X158220919Y-105039083D01*
X158171906Y-104907671D01*
X158171902Y-104907664D01*
X158085656Y-104792455D01*
X158085653Y-104792452D01*
X157970444Y-104706206D01*
X157970437Y-104706202D01*
X157835591Y-104655908D01*
X157835592Y-104655908D01*
X157775992Y-104649501D01*
X157775990Y-104649500D01*
X157775982Y-104649500D01*
X157775973Y-104649500D01*
X155980238Y-104649500D01*
X155980232Y-104649501D01*
X155920625Y-104655908D01*
X155785780Y-104706202D01*
X155785773Y-104706206D01*
X155670564Y-104792452D01*
X155670561Y-104792455D01*
X155584315Y-104907664D01*
X155584312Y-104907669D01*
X155535298Y-105039083D01*
X155493426Y-105095016D01*
X155427962Y-105119433D01*
X155359689Y-105104581D01*
X155331435Y-105083430D01*
X155217895Y-104969890D01*
X155045924Y-104844948D01*
X155045923Y-104844947D01*
X155006314Y-104824765D01*
X154955518Y-104776791D01*
X154938609Y-104714281D01*
X154938609Y-103690945D01*
X154938609Y-103690943D01*
X154897686Y-103538216D01*
X154897682Y-103538209D01*
X154818633Y-103401290D01*
X154818630Y-103401286D01*
X154818629Y-103401284D01*
X154706825Y-103289480D01*
X154706824Y-103289479D01*
X154702494Y-103285149D01*
X154702483Y-103285139D01*
X154055699Y-102638355D01*
X154055697Y-102638352D01*
X153936826Y-102519481D01*
X153936825Y-102519480D01*
X153850013Y-102469360D01*
X153850013Y-102469359D01*
X153850009Y-102469358D01*
X153799894Y-102440423D01*
X153647166Y-102399499D01*
X153489052Y-102399499D01*
X153481456Y-102399499D01*
X153481440Y-102399500D01*
X145868206Y-102399500D01*
X145801167Y-102379815D01*
X145780525Y-102363181D01*
X143605928Y-100188584D01*
X143572443Y-100127261D01*
X143569609Y-100100903D01*
X143569609Y-99368872D01*
X146067609Y-99368872D01*
X146067609Y-99631127D01*
X146094232Y-99833339D01*
X146101839Y-99891116D01*
X146158051Y-100100903D01*
X146169711Y-100144418D01*
X146169714Y-100144428D01*
X146270062Y-100386690D01*
X146270067Y-100386700D01*
X146401184Y-100613803D01*
X146560827Y-100821851D01*
X146560835Y-100821860D01*
X146746249Y-101007274D01*
X146746257Y-101007281D01*
X146954305Y-101166924D01*
X147181408Y-101298041D01*
X147181418Y-101298046D01*
X147423680Y-101398394D01*
X147423690Y-101398398D01*
X147676993Y-101466270D01*
X147936989Y-101500500D01*
X147936996Y-101500500D01*
X148199222Y-101500500D01*
X148199229Y-101500500D01*
X148459225Y-101466270D01*
X148712528Y-101398398D01*
X148954806Y-101298043D01*
X149181912Y-101166924D01*
X149389960Y-101007282D01*
X149389964Y-101007277D01*
X149389969Y-101007274D01*
X149575383Y-100821860D01*
X149575386Y-100821855D01*
X149575391Y-100821851D01*
X149735033Y-100613803D01*
X149866152Y-100386697D01*
X149966507Y-100144419D01*
X150034379Y-99891116D01*
X150068609Y-99631120D01*
X150068609Y-99368880D01*
X150068608Y-99368872D01*
X168067609Y-99368872D01*
X168067609Y-99631127D01*
X168094232Y-99833339D01*
X168101839Y-99891116D01*
X168158051Y-100100903D01*
X168169711Y-100144418D01*
X168169714Y-100144428D01*
X168270062Y-100386690D01*
X168270067Y-100386700D01*
X168401184Y-100613803D01*
X168560827Y-100821851D01*
X168560835Y-100821860D01*
X168746249Y-101007274D01*
X168746257Y-101007281D01*
X168954305Y-101166924D01*
X169181408Y-101298041D01*
X169181418Y-101298046D01*
X169423680Y-101398394D01*
X169423690Y-101398398D01*
X169676993Y-101466270D01*
X169936989Y-101500500D01*
X169936996Y-101500500D01*
X170199222Y-101500500D01*
X170199229Y-101500500D01*
X170459225Y-101466270D01*
X170712528Y-101398398D01*
X170954806Y-101298043D01*
X171181912Y-101166924D01*
X171389960Y-101007282D01*
X171389964Y-101007277D01*
X171389969Y-101007274D01*
X171575383Y-100821860D01*
X171575386Y-100821855D01*
X171575391Y-100821851D01*
X171735033Y-100613803D01*
X171866152Y-100386697D01*
X171966507Y-100144419D01*
X172034379Y-99891116D01*
X172068609Y-99631120D01*
X172068609Y-99368880D01*
X172034379Y-99108884D01*
X171966507Y-98855581D01*
X171915935Y-98733489D01*
X171866155Y-98613309D01*
X171866150Y-98613299D01*
X171735033Y-98386196D01*
X171575390Y-98178148D01*
X171575383Y-98178140D01*
X171389969Y-97992726D01*
X171389960Y-97992718D01*
X171181912Y-97833075D01*
X170954809Y-97701958D01*
X170954799Y-97701953D01*
X170712537Y-97601605D01*
X170712530Y-97601603D01*
X170712528Y-97601602D01*
X170459225Y-97533730D01*
X170401448Y-97526123D01*
X170199236Y-97499500D01*
X170199229Y-97499500D01*
X169936989Y-97499500D01*
X169936981Y-97499500D01*
X169705881Y-97529926D01*
X169676993Y-97533730D01*
X169508617Y-97578846D01*
X169423690Y-97601602D01*
X169423680Y-97601605D01*
X169181418Y-97701953D01*
X169181408Y-97701958D01*
X168954305Y-97833075D01*
X168746257Y-97992718D01*
X168560827Y-98178148D01*
X168401184Y-98386196D01*
X168270067Y-98613299D01*
X168270062Y-98613309D01*
X168169714Y-98855571D01*
X168169711Y-98855581D01*
X168112219Y-99070147D01*
X168101839Y-99108885D01*
X168067609Y-99368872D01*
X150068608Y-99368872D01*
X150034379Y-99108884D01*
X149966507Y-98855581D01*
X149915935Y-98733489D01*
X149866155Y-98613309D01*
X149866150Y-98613299D01*
X149735033Y-98386196D01*
X149575390Y-98178148D01*
X149575383Y-98178140D01*
X149389969Y-97992726D01*
X149389960Y-97992718D01*
X149181912Y-97833075D01*
X148954809Y-97701958D01*
X148954799Y-97701953D01*
X148712537Y-97601605D01*
X148712530Y-97601603D01*
X148712528Y-97601602D01*
X148459225Y-97533730D01*
X148401448Y-97526123D01*
X148199236Y-97499500D01*
X148199229Y-97499500D01*
X147936989Y-97499500D01*
X147936981Y-97499500D01*
X147705881Y-97529926D01*
X147676993Y-97533730D01*
X147508617Y-97578846D01*
X147423690Y-97601602D01*
X147423680Y-97601605D01*
X147181418Y-97701953D01*
X147181408Y-97701958D01*
X146954305Y-97833075D01*
X146746257Y-97992718D01*
X146560827Y-98178148D01*
X146401184Y-98386196D01*
X146270067Y-98613299D01*
X146270062Y-98613309D01*
X146169714Y-98855571D01*
X146169711Y-98855581D01*
X146112219Y-99070147D01*
X146101839Y-99108885D01*
X146067609Y-99368872D01*
X143569609Y-99368872D01*
X143569609Y-99182941D01*
X143589294Y-99115902D01*
X143642098Y-99070147D01*
X143711256Y-99060203D01*
X143774812Y-99089228D01*
X143781290Y-99095260D01*
X143807816Y-99121786D01*
X143807820Y-99121789D01*
X143938923Y-99209390D01*
X143938936Y-99209397D01*
X144084607Y-99269735D01*
X144084612Y-99269737D01*
X144239262Y-99300499D01*
X144239265Y-99300500D01*
X144239267Y-99300500D01*
X144396953Y-99300500D01*
X144396954Y-99300499D01*
X144551606Y-99269737D01*
X144572869Y-99260929D01*
X144598629Y-99250260D01*
X144697281Y-99209397D01*
X144697281Y-99209396D01*
X144697288Y-99209394D01*
X144828398Y-99121789D01*
X144939898Y-99010289D01*
X145027503Y-98879179D01*
X145087846Y-98733497D01*
X145118609Y-98578842D01*
X145118609Y-98421158D01*
X145118609Y-98421155D01*
X145118608Y-98421153D01*
X145111655Y-98386197D01*
X145087846Y-98266503D01*
X145074399Y-98234041D01*
X145066930Y-98164573D01*
X145098204Y-98102093D01*
X145101252Y-98098934D01*
X145189898Y-98010289D01*
X145277503Y-97879179D01*
X145337846Y-97733497D01*
X145368609Y-97578842D01*
X145368609Y-97421158D01*
X145368609Y-97421155D01*
X145368608Y-97421153D01*
X145337847Y-97266510D01*
X145337846Y-97266503D01*
X145337844Y-97266498D01*
X145277506Y-97120827D01*
X145277499Y-97120814D01*
X145189898Y-96989711D01*
X145189895Y-96989707D01*
X145078405Y-96878217D01*
X145078401Y-96878214D01*
X145078398Y-96878211D01*
X145074712Y-96875748D01*
X145029910Y-96822133D01*
X145019609Y-96772650D01*
X145019609Y-96340117D01*
X145019610Y-96340104D01*
X145019610Y-96172002D01*
X145019610Y-96172000D01*
X144978686Y-96019272D01*
X144899629Y-95882341D01*
X144683864Y-95666576D01*
X144679514Y-95660121D01*
X144675600Y-95657448D01*
X144668863Y-95644313D01*
X144657356Y-95627236D01*
X144653999Y-95619308D01*
X144626629Y-95517158D01*
X144570948Y-95420716D01*
X144547572Y-95380227D01*
X144435768Y-95268423D01*
X144435767Y-95268422D01*
X144431437Y-95264092D01*
X144431426Y-95264082D01*
X144006928Y-94839584D01*
X143973443Y-94778261D01*
X143970609Y-94751903D01*
X143970609Y-90026248D01*
X143974233Y-90013905D01*
X143973189Y-90001085D01*
X143983888Y-89981022D01*
X143990294Y-89959209D01*
X144000781Y-89949347D01*
X144006068Y-89939435D01*
X144024714Y-89926843D01*
X144034112Y-89918007D01*
X144045166Y-89911828D01*
X144049837Y-89910577D01*
X144122645Y-89868541D01*
X144186768Y-89831520D01*
X144298572Y-89719716D01*
X144298573Y-89719714D01*
X144650629Y-89367659D01*
X144729686Y-89230728D01*
X144770610Y-89078000D01*
X144770610Y-88919885D01*
X144770610Y-88912290D01*
X144770609Y-88912272D01*
X144770609Y-88590116D01*
X144770610Y-88590103D01*
X144770610Y-88422002D01*
X144770610Y-88422000D01*
X144729686Y-88269272D01*
X144685102Y-88192051D01*
X144650629Y-88132341D01*
X144599979Y-88081691D01*
X144594889Y-88074994D01*
X144585317Y-88049894D01*
X144572443Y-88026317D01*
X144570918Y-88012136D01*
X144569993Y-88009710D01*
X144570432Y-88007616D01*
X144569609Y-87999959D01*
X144569609Y-87131263D01*
X169313609Y-87131263D01*
X169313609Y-87328736D01*
X169344498Y-87523763D01*
X169401599Y-87699500D01*
X169405518Y-87711561D01*
X169495165Y-87887501D01*
X169495167Y-87887504D01*
X169611224Y-88047246D01*
X169750862Y-88186884D01*
X169864259Y-88269270D01*
X169910608Y-88302944D01*
X170080513Y-88389516D01*
X170131308Y-88437490D01*
X170148103Y-88505311D01*
X170125565Y-88571446D01*
X170080513Y-88610483D01*
X169923430Y-88690522D01*
X169910604Y-88697058D01*
X169750862Y-88813115D01*
X169611224Y-88952753D01*
X169495167Y-89112495D01*
X169405517Y-89288441D01*
X169344498Y-89476236D01*
X169313609Y-89671263D01*
X169313609Y-89868736D01*
X169344498Y-90063763D01*
X169405517Y-90251558D01*
X169405518Y-90251561D01*
X169495165Y-90427501D01*
X169495167Y-90427504D01*
X169611224Y-90587246D01*
X169750862Y-90726884D01*
X169900343Y-90835486D01*
X169910608Y-90842944D01*
X170080513Y-90929516D01*
X170131308Y-90977490D01*
X170148103Y-91045311D01*
X170125565Y-91111446D01*
X170080513Y-91150483D01*
X169923430Y-91230522D01*
X169910604Y-91237058D01*
X169750862Y-91353115D01*
X169611224Y-91492753D01*
X169495167Y-91652495D01*
X169405517Y-91828441D01*
X169344498Y-92016236D01*
X169313609Y-92211263D01*
X169313609Y-92408736D01*
X169344498Y-92603763D01*
X169384934Y-92728210D01*
X169405518Y-92791561D01*
X169430050Y-92839707D01*
X169495167Y-92967504D01*
X169611224Y-93127246D01*
X169750862Y-93266884D01*
X169900343Y-93375486D01*
X169910608Y-93382944D01*
X170086548Y-93472591D01*
X170211746Y-93513270D01*
X170274345Y-93533610D01*
X170469373Y-93564500D01*
X170469378Y-93564500D01*
X170666845Y-93564500D01*
X170861872Y-93533610D01*
X171049670Y-93472591D01*
X171225610Y-93382944D01*
X171315301Y-93317779D01*
X171385355Y-93266884D01*
X171385357Y-93266881D01*
X171385361Y-93266879D01*
X171524988Y-93127252D01*
X171524990Y-93127248D01*
X171524993Y-93127246D01*
X171575888Y-93057192D01*
X171641053Y-92967501D01*
X171730700Y-92791561D01*
X171791719Y-92603763D01*
X171795441Y-92580261D01*
X171822609Y-92408736D01*
X171822609Y-92211263D01*
X171791719Y-92016236D01*
X171747870Y-91881284D01*
X171730700Y-91828439D01*
X171641053Y-91652499D01*
X171625640Y-91631284D01*
X171524993Y-91492753D01*
X171385355Y-91353115D01*
X171225614Y-91237058D01*
X171219228Y-91233804D01*
X171055702Y-91150482D01*
X171004909Y-91102510D01*
X170988114Y-91034689D01*
X171010651Y-90968554D01*
X171055702Y-90929517D01*
X171225610Y-90842944D01*
X171246021Y-90828114D01*
X171385355Y-90726884D01*
X171385357Y-90726881D01*
X171385361Y-90726879D01*
X171524988Y-90587252D01*
X171524990Y-90587248D01*
X171524993Y-90587246D01*
X171575888Y-90517192D01*
X171641053Y-90427501D01*
X171730700Y-90251561D01*
X171791719Y-90063763D01*
X171809841Y-89949347D01*
X171822609Y-89868736D01*
X171822609Y-89671263D01*
X171791719Y-89476236D01*
X171771379Y-89413637D01*
X171730700Y-89288439D01*
X171641053Y-89112499D01*
X171615986Y-89077997D01*
X171524993Y-88952753D01*
X171385355Y-88813115D01*
X171225614Y-88697058D01*
X171219228Y-88693804D01*
X171055702Y-88610482D01*
X171004909Y-88562510D01*
X170988114Y-88494689D01*
X171010651Y-88428554D01*
X171055702Y-88389517D01*
X171225610Y-88302944D01*
X171271959Y-88269270D01*
X171385355Y-88186884D01*
X171385357Y-88186881D01*
X171385361Y-88186879D01*
X171524988Y-88047252D01*
X171524990Y-88047248D01*
X171524993Y-88047246D01*
X171575888Y-87977192D01*
X171641053Y-87887501D01*
X171730700Y-87711561D01*
X171791719Y-87523763D01*
X171822609Y-87328736D01*
X171822609Y-87131263D01*
X171791719Y-86936236D01*
X171771379Y-86873637D01*
X171730700Y-86748439D01*
X171641053Y-86572499D01*
X171633595Y-86562234D01*
X171524993Y-86412753D01*
X171385355Y-86273115D01*
X171225613Y-86157058D01*
X171225612Y-86157057D01*
X171225610Y-86157056D01*
X171049670Y-86067409D01*
X171049667Y-86067408D01*
X170861872Y-86006389D01*
X170666845Y-85975500D01*
X170666840Y-85975500D01*
X170469378Y-85975500D01*
X170469373Y-85975500D01*
X170274345Y-86006389D01*
X170086550Y-86067408D01*
X169910604Y-86157058D01*
X169750862Y-86273115D01*
X169611224Y-86412753D01*
X169495167Y-86572495D01*
X169405517Y-86748441D01*
X169344498Y-86936236D01*
X169313609Y-87131263D01*
X144569609Y-87131263D01*
X144569609Y-84422960D01*
X144569610Y-84422947D01*
X144569610Y-84254844D01*
X144560717Y-84221656D01*
X144528686Y-84102116D01*
X144475672Y-84010292D01*
X144449633Y-83965190D01*
X144449627Y-83965182D01*
X144105928Y-83621483D01*
X144072443Y-83560160D01*
X144069609Y-83533802D01*
X144069609Y-78399097D01*
X144089294Y-78332058D01*
X144105928Y-78311416D01*
X145048472Y-77368872D01*
X146283774Y-76133569D01*
X146345095Y-76100086D01*
X146414787Y-76105070D01*
X146470720Y-76146942D01*
X146495137Y-76212406D01*
X146480285Y-76280679D01*
X146469829Y-76296738D01*
X146401184Y-76386197D01*
X146270067Y-76613299D01*
X146270062Y-76613309D01*
X146169714Y-76855571D01*
X146169711Y-76855581D01*
X146101839Y-77108885D01*
X146067609Y-77368872D01*
X146067609Y-77631127D01*
X146094232Y-77833339D01*
X146101839Y-77891116D01*
X146169711Y-78144418D01*
X146169714Y-78144428D01*
X146270062Y-78386690D01*
X146270067Y-78386700D01*
X146401184Y-78613803D01*
X146560827Y-78821851D01*
X146560835Y-78821860D01*
X146746249Y-79007274D01*
X146746257Y-79007281D01*
X146954305Y-79166924D01*
X147181408Y-79298041D01*
X147181418Y-79298046D01*
X147374954Y-79378211D01*
X147423690Y-79398398D01*
X147676993Y-79466270D01*
X147936989Y-79500500D01*
X147936996Y-79500500D01*
X148199222Y-79500500D01*
X148199229Y-79500500D01*
X148459225Y-79466270D01*
X148712528Y-79398398D01*
X148954806Y-79298043D01*
X149181912Y-79166924D01*
X149389960Y-79007282D01*
X149389964Y-79007277D01*
X149389969Y-79007274D01*
X149575383Y-78821860D01*
X149575386Y-78821855D01*
X149575391Y-78821851D01*
X149735033Y-78613803D01*
X149866152Y-78386697D01*
X149966507Y-78144419D01*
X150034379Y-77891116D01*
X150068609Y-77631120D01*
X150068609Y-77368880D01*
X150068608Y-77368872D01*
X168067609Y-77368872D01*
X168067609Y-77631127D01*
X168094232Y-77833339D01*
X168101839Y-77891116D01*
X168169711Y-78144418D01*
X168169714Y-78144428D01*
X168270062Y-78386690D01*
X168270067Y-78386700D01*
X168401184Y-78613803D01*
X168560827Y-78821851D01*
X168560835Y-78821860D01*
X168746249Y-79007274D01*
X168746257Y-79007281D01*
X168954305Y-79166924D01*
X169181408Y-79298041D01*
X169181418Y-79298046D01*
X169374954Y-79378211D01*
X169423690Y-79398398D01*
X169676993Y-79466270D01*
X169936989Y-79500500D01*
X169936996Y-79500500D01*
X170199222Y-79500500D01*
X170199229Y-79500500D01*
X170459225Y-79466270D01*
X170712528Y-79398398D01*
X170954806Y-79298043D01*
X171181912Y-79166924D01*
X171389960Y-79007282D01*
X171389964Y-79007277D01*
X171389969Y-79007274D01*
X171575383Y-78821860D01*
X171575386Y-78821855D01*
X171575391Y-78821851D01*
X171735033Y-78613803D01*
X171866152Y-78386697D01*
X171966507Y-78144419D01*
X172034379Y-77891116D01*
X172068609Y-77631120D01*
X172068609Y-77368880D01*
X172034379Y-77108884D01*
X171966507Y-76855581D01*
X171926812Y-76759748D01*
X171866155Y-76613309D01*
X171866150Y-76613299D01*
X171735033Y-76386196D01*
X171612533Y-76226554D01*
X171575391Y-76178149D01*
X171575390Y-76178148D01*
X171575383Y-76178140D01*
X171389969Y-75992726D01*
X171389960Y-75992718D01*
X171181912Y-75833075D01*
X170954809Y-75701958D01*
X170954799Y-75701953D01*
X170712537Y-75601605D01*
X170712530Y-75601603D01*
X170712528Y-75601602D01*
X170459225Y-75533730D01*
X170401448Y-75526123D01*
X170199236Y-75499500D01*
X170199229Y-75499500D01*
X169936989Y-75499500D01*
X169936981Y-75499500D01*
X169705881Y-75529926D01*
X169676993Y-75533730D01*
X169423690Y-75601602D01*
X169423680Y-75601605D01*
X169181418Y-75701953D01*
X169181408Y-75701958D01*
X168954305Y-75833075D01*
X168746257Y-75992718D01*
X168560827Y-76178148D01*
X168401184Y-76386196D01*
X168270067Y-76613299D01*
X168270062Y-76613309D01*
X168169714Y-76855571D01*
X168169711Y-76855581D01*
X168101839Y-77108885D01*
X168067609Y-77368872D01*
X150068608Y-77368872D01*
X150034379Y-77108884D01*
X149966507Y-76855581D01*
X149926812Y-76759748D01*
X149866155Y-76613309D01*
X149866150Y-76613299D01*
X149735033Y-76386196D01*
X149612533Y-76226554D01*
X149575391Y-76178149D01*
X149575390Y-76178148D01*
X149575383Y-76178140D01*
X149389969Y-75992726D01*
X149389960Y-75992718D01*
X149181912Y-75833075D01*
X148954809Y-75701958D01*
X148954799Y-75701953D01*
X148712537Y-75601605D01*
X148712530Y-75601603D01*
X148712528Y-75601602D01*
X148459225Y-75533730D01*
X148401448Y-75526123D01*
X148199236Y-75499500D01*
X148199229Y-75499500D01*
X147936989Y-75499500D01*
X147936981Y-75499500D01*
X147705881Y-75529926D01*
X147676993Y-75533730D01*
X147423690Y-75601602D01*
X147423680Y-75601605D01*
X147181418Y-75701953D01*
X147181408Y-75701958D01*
X146954306Y-75833075D01*
X146864847Y-75901720D01*
X146799678Y-75926914D01*
X146731233Y-75912876D01*
X146681244Y-75864062D01*
X146665580Y-75795970D01*
X146689217Y-75730220D01*
X146701674Y-75715669D01*
X147780525Y-74636819D01*
X147841848Y-74603334D01*
X147868206Y-74600500D01*
X148866440Y-74600500D01*
X148866456Y-74600501D01*
X148874052Y-74600501D01*
X149032163Y-74600501D01*
X149032166Y-74600501D01*
X149184894Y-74559577D01*
X149235013Y-74530639D01*
X149321825Y-74480520D01*
X149433629Y-74368716D01*
X149433629Y-74368714D01*
X149443837Y-74358507D01*
X149443839Y-74358504D01*
X151083587Y-72718755D01*
X151144908Y-72685272D01*
X151209582Y-72688506D01*
X151251866Y-72702246D01*
X151461822Y-72735500D01*
X151461823Y-72735500D01*
X151674395Y-72735500D01*
X151674396Y-72735500D01*
X151884352Y-72702246D01*
X152086521Y-72636557D01*
X152275925Y-72540051D01*
X152362247Y-72477335D01*
X152447895Y-72415109D01*
X152447897Y-72415106D01*
X152447901Y-72415104D01*
X152598213Y-72264792D01*
X152598215Y-72264788D01*
X152598218Y-72264786D01*
X152723157Y-72092820D01*
X152723156Y-72092820D01*
X152723160Y-72092816D01*
X152819666Y-71903412D01*
X152885355Y-71701243D01*
X152918609Y-71491287D01*
X152918609Y-71278713D01*
X155297609Y-71278713D01*
X155297609Y-71491286D01*
X155322627Y-71649247D01*
X155330863Y-71701243D01*
X155388678Y-71879179D01*
X155396553Y-71903414D01*
X155493060Y-72092820D01*
X155617999Y-72264786D01*
X155768322Y-72415109D01*
X155940288Y-72540048D01*
X155940290Y-72540049D01*
X155940293Y-72540051D01*
X156129697Y-72636557D01*
X156331866Y-72702246D01*
X156541822Y-72735500D01*
X156541823Y-72735500D01*
X156754395Y-72735500D01*
X156754396Y-72735500D01*
X156964352Y-72702246D01*
X157166521Y-72636557D01*
X157355925Y-72540051D01*
X157442247Y-72477335D01*
X157527895Y-72415109D01*
X157527897Y-72415106D01*
X157527901Y-72415104D01*
X157678213Y-72264792D01*
X157678215Y-72264788D01*
X157678218Y-72264786D01*
X157803157Y-72092820D01*
X157803156Y-72092820D01*
X157803160Y-72092816D01*
X157899666Y-71903412D01*
X157965355Y-71701243D01*
X157998609Y-71491287D01*
X157998609Y-71278713D01*
X157965355Y-71068757D01*
X157899666Y-70866588D01*
X157803160Y-70677184D01*
X157803158Y-70677181D01*
X157803157Y-70677179D01*
X157678218Y-70505213D01*
X157527895Y-70354890D01*
X157355929Y-70229951D01*
X157166523Y-70133444D01*
X157166522Y-70133443D01*
X157166521Y-70133443D01*
X156964352Y-70067754D01*
X156964350Y-70067753D01*
X156964349Y-70067753D01*
X156803066Y-70042208D01*
X156754396Y-70034500D01*
X156541822Y-70034500D01*
X156493151Y-70042208D01*
X156331869Y-70067753D01*
X156129694Y-70133444D01*
X155940288Y-70229951D01*
X155768322Y-70354890D01*
X155617999Y-70505213D01*
X155493060Y-70677179D01*
X155396553Y-70866585D01*
X155330862Y-71068760D01*
X155297609Y-71278713D01*
X152918609Y-71278713D01*
X152885355Y-71068757D01*
X152819666Y-70866588D01*
X152723160Y-70677184D01*
X152723158Y-70677181D01*
X152723157Y-70677179D01*
X152598218Y-70505213D01*
X152447895Y-70354890D01*
X152275929Y-70229951D01*
X152086523Y-70133444D01*
X152086522Y-70133443D01*
X152086521Y-70133443D01*
X151884352Y-70067754D01*
X151884350Y-70067753D01*
X151884349Y-70067753D01*
X151723066Y-70042208D01*
X151674396Y-70034500D01*
X151461822Y-70034500D01*
X151413151Y-70042208D01*
X151251869Y-70067753D01*
X151049694Y-70133444D01*
X150860288Y-70229951D01*
X150688322Y-70354890D01*
X150537999Y-70505213D01*
X150413058Y-70677182D01*
X150408593Y-70685946D01*
X150360618Y-70736742D01*
X150292797Y-70753536D01*
X150226662Y-70730998D01*
X150187625Y-70685946D01*
X150183159Y-70677182D01*
X150058218Y-70505213D01*
X149907895Y-70354890D01*
X149735929Y-70229951D01*
X149546523Y-70133444D01*
X149546522Y-70133443D01*
X149546521Y-70133443D01*
X149344352Y-70067754D01*
X149344350Y-70067753D01*
X149344349Y-70067753D01*
X149183066Y-70042208D01*
X149134396Y-70034500D01*
X148921822Y-70034500D01*
X148873151Y-70042208D01*
X148711869Y-70067753D01*
X148509694Y-70133444D01*
X148320288Y-70229951D01*
X148148324Y-70354889D01*
X148034782Y-70468431D01*
X147973459Y-70501915D01*
X147903767Y-70496931D01*
X147847834Y-70455059D01*
X147830919Y-70424082D01*
X147781906Y-70292671D01*
X147781902Y-70292664D01*
X147695656Y-70177455D01*
X147695653Y-70177452D01*
X147580444Y-70091206D01*
X147580437Y-70091202D01*
X147445591Y-70040908D01*
X147445592Y-70040908D01*
X147385992Y-70034501D01*
X147385990Y-70034500D01*
X147385982Y-70034500D01*
X147385973Y-70034500D01*
X145590238Y-70034500D01*
X145590232Y-70034501D01*
X145530625Y-70040908D01*
X145395780Y-70091202D01*
X145395773Y-70091206D01*
X145280564Y-70177452D01*
X145280561Y-70177455D01*
X145194315Y-70292664D01*
X145194311Y-70292671D01*
X145144017Y-70427517D01*
X145137610Y-70487116D01*
X145137609Y-70487135D01*
X145137609Y-72282870D01*
X145137610Y-72282876D01*
X145144017Y-72342483D01*
X145194311Y-72477328D01*
X145194315Y-72477335D01*
X145280561Y-72592544D01*
X145280564Y-72592547D01*
X145395773Y-72678793D01*
X145395780Y-72678797D01*
X145530626Y-72729091D01*
X145530625Y-72729091D01*
X145537553Y-72729835D01*
X145590236Y-72735500D01*
X147385981Y-72735499D01*
X147445592Y-72729091D01*
X147580440Y-72678796D01*
X147695655Y-72592546D01*
X147781905Y-72477331D01*
X147830919Y-72345916D01*
X147872790Y-72289984D01*
X147938254Y-72265566D01*
X148006527Y-72280417D01*
X148034782Y-72301569D01*
X148148322Y-72415109D01*
X148320288Y-72540048D01*
X148320290Y-72540049D01*
X148320293Y-72540051D01*
X148509697Y-72636557D01*
X148711866Y-72702246D01*
X148921822Y-72735500D01*
X148921823Y-72735500D01*
X149069011Y-72735500D01*
X149136050Y-72755185D01*
X149181805Y-72807989D01*
X149191749Y-72877147D01*
X149162724Y-72940703D01*
X149156692Y-72947181D01*
X148740693Y-73363181D01*
X148679370Y-73396666D01*
X148653012Y-73399500D01*
X147489049Y-73399500D01*
X147448128Y-73410464D01*
X147448128Y-73410465D01*
X147415466Y-73419217D01*
X147336323Y-73440423D01*
X147336318Y-73440426D01*
X147199399Y-73519475D01*
X147199391Y-73519481D01*
X143880290Y-76838583D01*
X143818967Y-76872068D01*
X143749275Y-76867084D01*
X143693342Y-76825212D01*
X143668925Y-76759748D01*
X143668609Y-76750902D01*
X143668609Y-72079765D01*
X143688294Y-72012726D01*
X143689507Y-72010874D01*
X143777499Y-71879185D01*
X143777499Y-71879184D01*
X143777503Y-71879179D01*
X143837846Y-71733497D01*
X143868609Y-71578842D01*
X143868609Y-71421158D01*
X143868609Y-71421155D01*
X143868608Y-71421153D01*
X143862726Y-71391582D01*
X143837846Y-71266503D01*
X143821158Y-71226214D01*
X143777506Y-71120827D01*
X143777499Y-71120814D01*
X143689898Y-70989711D01*
X143689895Y-70989707D01*
X143578401Y-70878213D01*
X143578397Y-70878210D01*
X143447294Y-70790609D01*
X143447281Y-70790602D01*
X143301610Y-70730264D01*
X143301598Y-70730261D01*
X143146954Y-70699500D01*
X143146951Y-70699500D01*
X142989267Y-70699500D01*
X142989264Y-70699500D01*
X142834619Y-70730261D01*
X142834607Y-70730264D01*
X142688936Y-70790602D01*
X142688923Y-70790609D01*
X142557820Y-70878210D01*
X142557816Y-70878213D01*
X142446322Y-70989707D01*
X142446319Y-70989711D01*
X142358718Y-71120814D01*
X142358711Y-71120827D01*
X142298373Y-71266498D01*
X142298370Y-71266510D01*
X142267609Y-71421153D01*
X142267609Y-71578846D01*
X142298370Y-71733489D01*
X142298373Y-71733501D01*
X142358711Y-71879172D01*
X142358718Y-71879185D01*
X142446711Y-72010874D01*
X142467589Y-72077551D01*
X142467609Y-72079765D01*
X142467609Y-83183803D01*
X142447924Y-83250842D01*
X142395120Y-83296597D01*
X142325962Y-83306541D01*
X142262406Y-83277516D01*
X142255928Y-83271484D01*
X140221799Y-81237355D01*
X140221797Y-81237352D01*
X140102926Y-81118481D01*
X140102925Y-81118480D01*
X140016113Y-81068360D01*
X140016113Y-81068359D01*
X140016109Y-81068358D01*
X139965994Y-81039423D01*
X139813266Y-80998499D01*
X139655152Y-80998499D01*
X139647556Y-80998499D01*
X139647540Y-80998500D01*
X137750049Y-80998500D01*
X137683010Y-80978815D01*
X137662372Y-80962185D01*
X137578398Y-80878211D01*
X137578397Y-80878210D01*
X137578396Y-80878209D01*
X137447294Y-80790609D01*
X137447281Y-80790602D01*
X137301610Y-80730264D01*
X137301598Y-80730261D01*
X137146954Y-80699500D01*
X137146951Y-80699500D01*
X136989267Y-80699500D01*
X136989264Y-80699500D01*
X136834619Y-80730261D01*
X136834607Y-80730264D01*
X136688936Y-80790602D01*
X136688923Y-80790609D01*
X136557820Y-80878210D01*
X136557816Y-80878213D01*
X136446322Y-80989707D01*
X136446319Y-80989711D01*
X136358718Y-81120814D01*
X136358711Y-81120827D01*
X136298373Y-81266498D01*
X136298370Y-81266510D01*
X136267609Y-81421153D01*
X136267609Y-81578846D01*
X136298370Y-81733489D01*
X136300140Y-81739324D01*
X136297388Y-81740158D01*
X136303612Y-81797359D01*
X136272418Y-81859878D01*
X136212375Y-81895608D01*
X136181554Y-81899500D01*
X134897875Y-81899500D01*
X134879731Y-81894172D01*
X134860822Y-81893835D01*
X134832604Y-81880334D01*
X134830836Y-81879815D01*
X134828984Y-81878602D01*
X134757925Y-81831122D01*
X134713120Y-81777510D01*
X134704413Y-81708185D01*
X134734567Y-81645158D01*
X134739116Y-81640358D01*
X135633404Y-80746070D01*
X135673628Y-80719193D01*
X135697288Y-80709394D01*
X135828398Y-80621789D01*
X135939898Y-80510289D01*
X136027503Y-80379179D01*
X136087846Y-80233497D01*
X136118609Y-80078842D01*
X136118609Y-79921158D01*
X136118609Y-79921155D01*
X136118608Y-79921153D01*
X136087847Y-79766510D01*
X136087846Y-79766503D01*
X136053964Y-79684704D01*
X136027506Y-79620827D01*
X136027499Y-79620814D01*
X135939898Y-79489711D01*
X135939895Y-79489707D01*
X135828401Y-79378213D01*
X135828397Y-79378210D01*
X135697294Y-79290609D01*
X135697281Y-79290602D01*
X135551610Y-79230264D01*
X135551598Y-79230261D01*
X135396954Y-79199500D01*
X135396951Y-79199500D01*
X135239267Y-79199500D01*
X135239264Y-79199500D01*
X135084619Y-79230261D01*
X135084607Y-79230264D01*
X134938936Y-79290602D01*
X134938923Y-79290609D01*
X134807820Y-79378210D01*
X134807816Y-79378213D01*
X134696322Y-79489707D01*
X134696316Y-79489715D01*
X134608716Y-79620818D01*
X134608714Y-79620822D01*
X134598914Y-79644480D01*
X134572036Y-79684704D01*
X131543560Y-82713181D01*
X131482237Y-82746666D01*
X131455879Y-82749500D01*
X129122713Y-82749500D01*
X129075264Y-82740062D01*
X129051606Y-82730263D01*
X129051602Y-82730262D01*
X129051597Y-82730260D01*
X128896954Y-82699500D01*
X128896951Y-82699500D01*
X128739267Y-82699500D01*
X128739264Y-82699500D01*
X128584619Y-82730261D01*
X128584607Y-82730264D01*
X128438936Y-82790602D01*
X128438923Y-82790609D01*
X128307820Y-82878210D01*
X128307816Y-82878213D01*
X128196322Y-82989707D01*
X128196319Y-82989711D01*
X128108718Y-83120814D01*
X128108711Y-83120827D01*
X128048373Y-83266498D01*
X128048370Y-83266510D01*
X128017609Y-83421153D01*
X101375186Y-83421153D01*
X101375609Y-83419573D01*
X101375609Y-83300427D01*
X101344772Y-83185341D01*
X101285199Y-83082158D01*
X101200951Y-82997910D01*
X101149359Y-82968123D01*
X101097769Y-82938337D01*
X101033166Y-82921027D01*
X100982682Y-82907500D01*
X100863536Y-82907500D01*
X100748448Y-82938337D01*
X100645267Y-82997910D01*
X100645264Y-82997912D01*
X100561021Y-83082155D01*
X100561019Y-83082158D01*
X100501446Y-83185339D01*
X100495002Y-83209390D01*
X100470609Y-83300427D01*
X94572609Y-83300427D01*
X94572609Y-72033992D01*
X110474500Y-72033992D01*
X110474500Y-72686007D01*
X110513907Y-72884119D01*
X110513909Y-72884127D01*
X110591212Y-73070752D01*
X110591217Y-73070762D01*
X110703441Y-73238718D01*
X110846281Y-73381558D01*
X111014237Y-73493782D01*
X111014241Y-73493784D01*
X111014244Y-73493786D01*
X111200873Y-73571091D01*
X111398992Y-73610499D01*
X111398996Y-73610500D01*
X111398997Y-73610500D01*
X111601004Y-73610500D01*
X111601005Y-73610499D01*
X111799127Y-73571091D01*
X111985756Y-73493786D01*
X112066110Y-73440094D01*
X112132786Y-73419217D01*
X112200166Y-73437701D01*
X112203865Y-73440078D01*
X112284244Y-73493786D01*
X112470873Y-73571091D01*
X112668992Y-73610499D01*
X112668996Y-73610500D01*
X112668997Y-73610500D01*
X112871004Y-73610500D01*
X112871005Y-73610499D01*
X113069127Y-73571091D01*
X113255756Y-73493786D01*
X113423718Y-73381558D01*
X113566558Y-73238718D01*
X113678786Y-73070756D01*
X113756091Y-72884127D01*
X113795500Y-72686003D01*
X113795500Y-72452135D01*
X117399500Y-72452135D01*
X117399500Y-74547870D01*
X117399501Y-74547876D01*
X117405908Y-74607483D01*
X117456202Y-74742328D01*
X117456206Y-74742335D01*
X117542452Y-74857544D01*
X117542455Y-74857547D01*
X117657664Y-74943793D01*
X117657671Y-74943797D01*
X117792517Y-74994091D01*
X117792516Y-74994091D01*
X117799444Y-74994835D01*
X117852127Y-75000500D01*
X119947872Y-75000499D01*
X120007483Y-74994091D01*
X120142331Y-74943796D01*
X120257546Y-74857546D01*
X120343796Y-74742331D01*
X120394091Y-74607483D01*
X120400500Y-74547873D01*
X120400499Y-73381902D01*
X124999500Y-73381902D01*
X124999500Y-73618097D01*
X125036446Y-73851368D01*
X125109433Y-74075996D01*
X125216657Y-74286433D01*
X125355483Y-74477510D01*
X125522490Y-74644517D01*
X125713567Y-74783343D01*
X125812991Y-74834002D01*
X125924003Y-74890566D01*
X125924005Y-74890566D01*
X125924008Y-74890568D01*
X126044412Y-74929689D01*
X126148631Y-74963553D01*
X126381903Y-75000500D01*
X126381908Y-75000500D01*
X126618097Y-75000500D01*
X126851368Y-74963553D01*
X127075992Y-74890568D01*
X127286433Y-74783343D01*
X127477510Y-74644517D01*
X127644517Y-74477510D01*
X127783343Y-74286433D01*
X127890568Y-74075992D01*
X127963553Y-73851368D01*
X128000500Y-73618097D01*
X128000500Y-73381902D01*
X127963553Y-73148631D01*
X127898097Y-72947181D01*
X127890568Y-72924008D01*
X127890566Y-72924005D01*
X127890566Y-72924003D01*
X127794517Y-72735498D01*
X127783343Y-72713567D01*
X127644517Y-72522490D01*
X127477510Y-72355483D01*
X127286433Y-72216657D01*
X127075996Y-72109433D01*
X126851368Y-72036446D01*
X126618097Y-71999500D01*
X126618092Y-71999500D01*
X126381908Y-71999500D01*
X126381903Y-71999500D01*
X126148631Y-72036446D01*
X125924003Y-72109433D01*
X125713566Y-72216657D01*
X125612641Y-72289984D01*
X125522490Y-72355483D01*
X125522488Y-72355485D01*
X125522487Y-72355485D01*
X125355485Y-72522487D01*
X125355485Y-72522488D01*
X125355483Y-72522490D01*
X125295862Y-72604550D01*
X125216657Y-72713566D01*
X125109433Y-72924003D01*
X125036446Y-73148631D01*
X124999500Y-73381902D01*
X120400499Y-73381902D01*
X120400499Y-72452128D01*
X120394091Y-72392517D01*
X120380278Y-72355483D01*
X120343797Y-72257671D01*
X120343793Y-72257664D01*
X120257547Y-72142455D01*
X120257544Y-72142452D01*
X120142335Y-72056206D01*
X120142328Y-72056202D01*
X120007482Y-72005908D01*
X120007483Y-72005908D01*
X119947883Y-71999501D01*
X119947881Y-71999500D01*
X119947873Y-71999500D01*
X119947864Y-71999500D01*
X117852129Y-71999500D01*
X117852123Y-71999501D01*
X117792516Y-72005908D01*
X117657671Y-72056202D01*
X117657664Y-72056206D01*
X117542455Y-72142452D01*
X117542452Y-72142455D01*
X117456206Y-72257664D01*
X117456202Y-72257671D01*
X117405908Y-72392517D01*
X117399501Y-72452116D01*
X117399501Y-72452123D01*
X117399500Y-72452135D01*
X113795500Y-72452135D01*
X113795500Y-72033997D01*
X113756091Y-71835873D01*
X113678786Y-71649244D01*
X113678784Y-71649241D01*
X113678782Y-71649237D01*
X113566558Y-71481281D01*
X113476859Y-71391582D01*
X135690609Y-71391582D01*
X135690609Y-71608417D01*
X135724527Y-71822566D01*
X135791527Y-72028774D01*
X135832625Y-72109432D01*
X135889965Y-72221968D01*
X136017410Y-72397381D01*
X136170728Y-72550699D01*
X136346141Y-72678144D01*
X136497342Y-72755185D01*
X136539334Y-72776581D01*
X136635999Y-72807989D01*
X136745544Y-72843582D01*
X136844728Y-72859291D01*
X136959692Y-72877500D01*
X136959697Y-72877500D01*
X137176526Y-72877500D01*
X137280342Y-72861056D01*
X137390674Y-72843582D01*
X137596886Y-72776580D01*
X137790077Y-72678144D01*
X137965490Y-72550699D01*
X138118808Y-72397381D01*
X138246253Y-72221968D01*
X138344689Y-72028777D01*
X138411691Y-71822565D01*
X138430907Y-71701239D01*
X138445609Y-71608417D01*
X138445609Y-71391582D01*
X138419417Y-71226217D01*
X138411691Y-71177435D01*
X138344689Y-70971223D01*
X138246253Y-70778032D01*
X138118808Y-70602619D01*
X137965490Y-70449301D01*
X137790077Y-70321856D01*
X137596883Y-70223418D01*
X137390675Y-70156418D01*
X137176526Y-70122500D01*
X137176521Y-70122500D01*
X136959697Y-70122500D01*
X136959692Y-70122500D01*
X136745542Y-70156418D01*
X136539334Y-70223418D01*
X136346140Y-70321856D01*
X136300665Y-70354896D01*
X136170728Y-70449301D01*
X136170726Y-70449303D01*
X136170725Y-70449303D01*
X136017412Y-70602616D01*
X136017412Y-70602617D01*
X136017410Y-70602619D01*
X135963239Y-70677179D01*
X135889965Y-70778031D01*
X135791527Y-70971225D01*
X135724527Y-71177433D01*
X135690609Y-71391582D01*
X113476859Y-71391582D01*
X113423718Y-71338441D01*
X113255762Y-71226217D01*
X113255752Y-71226212D01*
X113069127Y-71148909D01*
X113069119Y-71148907D01*
X112871007Y-71109500D01*
X112871003Y-71109500D01*
X112668997Y-71109500D01*
X112668992Y-71109500D01*
X112470880Y-71148907D01*
X112470872Y-71148909D01*
X112284244Y-71226213D01*
X112203891Y-71279904D01*
X112137213Y-71300782D01*
X112069833Y-71282297D01*
X112066109Y-71279904D01*
X111985755Y-71226213D01*
X111799127Y-71148909D01*
X111799119Y-71148907D01*
X111601007Y-71109500D01*
X111601003Y-71109500D01*
X111398997Y-71109500D01*
X111398992Y-71109500D01*
X111200880Y-71148907D01*
X111200872Y-71148909D01*
X111014247Y-71226212D01*
X111014237Y-71226217D01*
X110846281Y-71338441D01*
X110703441Y-71481281D01*
X110591217Y-71649237D01*
X110591212Y-71649247D01*
X110513909Y-71835872D01*
X110513907Y-71835880D01*
X110474500Y-72033992D01*
X94572609Y-72033992D01*
X94572609Y-70003010D01*
X94572758Y-69996926D01*
X94589140Y-69663464D01*
X94590333Y-69651353D01*
X94638878Y-69324088D01*
X94641252Y-69312154D01*
X94698855Y-69082189D01*
X94721646Y-68991201D01*
X94725171Y-68979584D01*
X94836635Y-68668061D01*
X94841280Y-68656846D01*
X94982754Y-68357723D01*
X94988478Y-68347015D01*
X95158578Y-68063222D01*
X95165321Y-68053129D01*
X95362431Y-67787358D01*
X95370134Y-67777973D01*
X95592341Y-67532806D01*
X95600911Y-67524236D01*
X95846086Y-67302023D01*
X95855464Y-67294326D01*
X96121230Y-67097222D01*
X96131323Y-67090478D01*
X96415129Y-66920370D01*
X96425829Y-66914651D01*
X96724944Y-66773181D01*
X96736149Y-66768539D01*
X97047697Y-66657066D01*
X97059318Y-66653541D01*
X97380269Y-66573148D01*
X97392184Y-66570778D01*
X97719461Y-66522231D01*
X97731565Y-66521039D01*
X98065094Y-66504653D01*
X98071096Y-66504506D01*
X168996948Y-66504500D01*
X169003032Y-66504649D01*
G37*
%TD.AperFunction*%
%TD*%
M02*
