%TF.GenerationSoftware,KiCad,Pcbnew,9.0.6*%
%TF.CreationDate,2026-03-02T22:48:21+07:00*%
%TF.ProjectId,Smart_Spotter,536d6172-745f-4537-906f-747465722e6b,rev?*%
%TF.SameCoordinates,Original*%
%TF.FileFunction,Paste,Top*%
%TF.FilePolarity,Positive*%
%FSLAX46Y46*%
G04 Gerber Fmt 4.6, Leading zero omitted, Abs format (unit mm)*
G04 Created by KiCad (PCBNEW 9.0.6) date 2026-03-02 22:48:21*
%MOMM*%
%LPD*%
G01*
G04 APERTURE LIST*
G04 Aperture macros list*
%AMRoundRect*
0 Rectangle with rounded corners*
0 $1 Rounding radius*
0 $2 $3 $4 $5 $6 $7 $8 $9 X,Y pos of 4 corners*
0 Add a 4 corners polygon primitive as box body*
4,1,4,$2,$3,$4,$5,$6,$7,$8,$9,$2,$3,0*
0 Add four circle primitives for the rounded corners*
1,1,$1+$1,$2,$3*
1,1,$1+$1,$4,$5*
1,1,$1+$1,$6,$7*
1,1,$1+$1,$8,$9*
0 Add four rect primitives between the rounded corners*
20,1,$1+$1,$2,$3,$4,$5,0*
20,1,$1+$1,$4,$5,$6,$7,0*
20,1,$1+$1,$6,$7,$8,$9,0*
20,1,$1+$1,$8,$9,$2,$3,0*%
G04 Aperture macros list end*
%ADD10RoundRect,0.225000X-0.250000X0.225000X-0.250000X-0.225000X0.250000X-0.225000X0.250000X0.225000X0*%
%ADD11RoundRect,0.200000X0.275000X-0.200000X0.275000X0.200000X-0.275000X0.200000X-0.275000X-0.200000X0*%
%ADD12RoundRect,0.225000X0.250000X-0.225000X0.250000X0.225000X-0.250000X0.225000X-0.250000X-0.225000X0*%
%ADD13RoundRect,0.250000X-1.000000X-0.750000X1.000000X-0.750000X1.000000X0.750000X-1.000000X0.750000X0*%
%ADD14RoundRect,0.200000X-0.275000X0.200000X-0.275000X-0.200000X0.275000X-0.200000X0.275000X0.200000X0*%
%ADD15R,1.550000X1.300000*%
%ADD16RoundRect,0.250000X-1.000000X-0.650000X1.000000X-0.650000X1.000000X0.650000X-1.000000X0.650000X0*%
%ADD17RoundRect,0.200000X-0.200000X-0.275000X0.200000X-0.275000X0.200000X0.275000X-0.200000X0.275000X0*%
%ADD18RoundRect,0.225000X-0.225000X-0.250000X0.225000X-0.250000X0.225000X0.250000X-0.225000X0.250000X0*%
%ADD19RoundRect,0.225000X0.225000X0.250000X-0.225000X0.250000X-0.225000X-0.250000X0.225000X-0.250000X0*%
%ADD20RoundRect,0.150000X-0.425000X0.150000X-0.425000X-0.150000X0.425000X-0.150000X0.425000X0.150000X0*%
%ADD21RoundRect,0.075000X-0.500000X0.075000X-0.500000X-0.075000X0.500000X-0.075000X0.500000X0.075000X0*%
%ADD22O,2.100000X1.000000*%
%ADD23O,1.800000X1.000000*%
%ADD24RoundRect,0.075000X0.075000X-0.700000X0.075000X0.700000X-0.075000X0.700000X-0.075000X-0.700000X0*%
%ADD25RoundRect,0.075000X0.700000X-0.075000X0.700000X0.075000X-0.700000X0.075000X-0.700000X-0.075000X0*%
%ADD26RoundRect,0.200000X0.200000X0.275000X-0.200000X0.275000X-0.200000X-0.275000X0.200000X-0.275000X0*%
%ADD27RoundRect,0.218750X-0.218750X-0.256250X0.218750X-0.256250X0.218750X0.256250X-0.218750X0.256250X0*%
%ADD28RoundRect,0.249999X-0.650001X-0.450001X0.650001X-0.450001X0.650001X0.450001X-0.650001X0.450001X0*%
%ADD29RoundRect,0.075000X-0.075000X0.350000X-0.075000X-0.350000X0.075000X-0.350000X0.075000X0.350000X0*%
%ADD30RoundRect,0.075000X-0.350000X-0.075000X0.350000X-0.075000X0.350000X0.075000X-0.350000X0.075000X0*%
%ADD31RoundRect,0.150000X-0.512500X-0.150000X0.512500X-0.150000X0.512500X0.150000X-0.512500X0.150000X0*%
G04 APERTURE END LIST*
D10*
%TO.C,C16*%
X130636218Y-98000000D03*
X130636218Y-99550000D03*
%TD*%
D11*
%TO.C,R5*%
X143068109Y-100825000D03*
X143068109Y-99175000D03*
%TD*%
D12*
%TO.C,C9*%
X107568109Y-78050000D03*
X107568109Y-76500000D03*
%TD*%
D13*
%TO.C,RV1*%
X132468109Y-73650000D03*
X141118109Y-71500000D03*
X132468109Y-69350000D03*
X132468109Y-69350000D03*
%TD*%
D14*
%TO.C,R1*%
X124568109Y-86675000D03*
X124568109Y-88325000D03*
%TD*%
D15*
%TO.C,S1*%
X117593109Y-101250000D03*
X117593109Y-105750000D03*
X125543109Y-101250000D03*
X125543109Y-105750000D03*
%TD*%
D16*
%TO.C,D3*%
X103068109Y-98750000D03*
X107068109Y-98750000D03*
%TD*%
D17*
%TO.C,R4*%
X137243109Y-78500000D03*
X138893109Y-78500000D03*
%TD*%
D14*
%TO.C,R2*%
X124568109Y-90175000D03*
X124568109Y-91825000D03*
%TD*%
D10*
%TO.C,C1*%
X129068109Y-98000000D03*
X129068109Y-99550000D03*
%TD*%
%TO.C,C12*%
X143068109Y-102725000D03*
X143068109Y-104275000D03*
%TD*%
D12*
%TO.C,C6*%
X115568109Y-88775000D03*
X115568109Y-87225000D03*
%TD*%
D17*
%TO.C,R3*%
X120743109Y-99000000D03*
X122393109Y-99000000D03*
%TD*%
D18*
%TO.C,C11*%
X120793109Y-108000000D03*
X122343109Y-108000000D03*
%TD*%
%TO.C,C5*%
X118793109Y-93500000D03*
X120343109Y-93500000D03*
%TD*%
D19*
%TO.C,C4*%
X123843109Y-93500000D03*
X122293109Y-93500000D03*
%TD*%
D20*
%TO.C,J4*%
X101998109Y-83050000D03*
X101998109Y-83850000D03*
D21*
X101998109Y-85000000D03*
X101998109Y-86000000D03*
X101998109Y-86500000D03*
X101998109Y-87500000D03*
D20*
X101998109Y-88650000D03*
X101998109Y-89450000D03*
X101998109Y-89450000D03*
X101998109Y-88650000D03*
D21*
X101998109Y-88000000D03*
X101998109Y-87000000D03*
X101998109Y-85500000D03*
X101998109Y-84500000D03*
D20*
X101998109Y-83850000D03*
X101998109Y-83050000D03*
D22*
X101423109Y-81930000D03*
D23*
X97243109Y-81930000D03*
D22*
X101423109Y-90570000D03*
D23*
X97243109Y-90570000D03*
%TD*%
D24*
%TO.C,U1*%
X131318109Y-95675000D03*
X131818109Y-95675000D03*
X132318109Y-95675000D03*
X132818109Y-95675000D03*
X133318109Y-95675000D03*
X133818109Y-95675000D03*
X134318109Y-95675000D03*
X134818109Y-95675000D03*
X135318109Y-95675000D03*
X135818109Y-95675000D03*
X136318109Y-95675000D03*
X136818109Y-95675000D03*
X137318109Y-95675000D03*
X137818109Y-95675000D03*
X138318109Y-95675000D03*
X138818109Y-95675000D03*
D25*
X140743109Y-93750000D03*
X140743109Y-93250000D03*
X140743109Y-92750000D03*
X140743109Y-92250000D03*
X140743109Y-91750000D03*
X140743109Y-91250000D03*
X140743109Y-90750000D03*
X140743109Y-90250000D03*
X140743109Y-89750000D03*
X140743109Y-89250000D03*
X140743109Y-88750000D03*
X140743109Y-88250000D03*
X140743109Y-87750000D03*
X140743109Y-87250000D03*
X140743109Y-86750000D03*
X140743109Y-86250000D03*
D24*
X138818109Y-84325000D03*
X138318109Y-84325000D03*
X137818109Y-84325000D03*
X137318109Y-84325000D03*
X136818109Y-84325000D03*
X136318109Y-84325000D03*
X135818109Y-84325000D03*
X135318109Y-84325000D03*
X134818109Y-84325000D03*
X134318109Y-84325000D03*
X133818109Y-84325000D03*
X133318109Y-84325000D03*
X132818109Y-84325000D03*
X132318109Y-84325000D03*
X131818109Y-84325000D03*
X131318109Y-84325000D03*
D25*
X129393109Y-86250000D03*
X129393109Y-86750000D03*
X129393109Y-87250000D03*
X129393109Y-87750000D03*
X129393109Y-88250000D03*
X129393109Y-88750000D03*
X129393109Y-89250000D03*
X129393109Y-89750000D03*
X129393109Y-90250000D03*
X129393109Y-90750000D03*
X129393109Y-91250000D03*
X129393109Y-91750000D03*
X129393109Y-92250000D03*
X129393109Y-92750000D03*
X129393109Y-93250000D03*
X129393109Y-93750000D03*
%TD*%
D10*
%TO.C,C8*%
X113568109Y-76475000D03*
X113568109Y-78025000D03*
%TD*%
D26*
%TO.C,R7*%
X108393109Y-85000000D03*
X106743109Y-85000000D03*
%TD*%
D19*
%TO.C,C2*%
X135343109Y-81000000D03*
X133793109Y-81000000D03*
%TD*%
D12*
%TO.C,C13*%
X134068109Y-104275000D03*
X134068109Y-102725000D03*
%TD*%
D27*
%TO.C,D2*%
X137280609Y-80000000D03*
X138855609Y-80000000D03*
%TD*%
D18*
%TO.C,C15*%
X106793109Y-89500000D03*
X108343109Y-89500000D03*
%TD*%
D28*
%TO.C,Y1*%
X136486218Y-104650000D03*
X140886218Y-104650000D03*
X140886218Y-102250000D03*
X136486218Y-102250000D03*
%TD*%
D29*
%TO.C,U2*%
X121868109Y-87600000D03*
X121368109Y-87600000D03*
X120868109Y-87600000D03*
X120368109Y-87600000D03*
X119868109Y-87600000D03*
X119368109Y-87600000D03*
D30*
X118668109Y-88300000D03*
X118668109Y-88800000D03*
X118668109Y-89300000D03*
X118668109Y-89800000D03*
X118668109Y-90300000D03*
X118668109Y-90800000D03*
D29*
X119368109Y-91500000D03*
X119868109Y-91500000D03*
X120368109Y-91500000D03*
X120868109Y-91500000D03*
X121368109Y-91500000D03*
X121868109Y-91500000D03*
D30*
X122568109Y-90800000D03*
X122568109Y-90300000D03*
X122568109Y-89800000D03*
X122568109Y-89300000D03*
X122568109Y-88800000D03*
X122568109Y-88300000D03*
%TD*%
D10*
%TO.C,C3*%
X115568109Y-90725000D03*
X115568109Y-92275000D03*
%TD*%
%TO.C,C7*%
X134136218Y-98000000D03*
X134136218Y-99550000D03*
%TD*%
%TO.C,C10*%
X132386218Y-98000000D03*
X132386218Y-99550000D03*
%TD*%
D18*
%TO.C,C14*%
X106793109Y-83500000D03*
X108343109Y-83500000D03*
%TD*%
D31*
%TO.C,U3*%
X109430609Y-76300000D03*
X109430609Y-77250000D03*
X109430609Y-78200000D03*
X111705609Y-78200000D03*
X111705609Y-76300000D03*
%TD*%
D26*
%TO.C,R6*%
X108393109Y-88000000D03*
X106743109Y-88000000D03*
%TD*%
M02*
